<svg id="visual" viewBox="0 0 900 600" width="900" height="600" xmlns="http://www.w3.org/2000/svg" xmlns:xlink="http://www.w3.org/1999/xlink" version="1.1"><rect x="0" y="0" width="900" height="600" fill="#eeeeee"></rect><defs><linearGradient id="grad1_0" x1="33.3%" y1="100%" x2="100%" y2="0%"><stop offset="20%" stop-color="#eeeeee" stop-opacity="1"></stop><stop offset="80%" stop-color="#eeeeee" stop-opacity="1"></stop></linearGradient></defs><defs><linearGradient id="grad2_0" x1="0%" y1="100%" x2="66.7%" y2="0%"><stop offset="20%" stop-color="#eeeeee" stop-opacity="1"></stop><stop offset="80%" stop-color="#eeeeee" stop-opacity="1"></stop></linearGradient></defs><g transform="translate(900, 600)"><path d="M-243.4 0C-241.1 -32.8 -238.8 -65.7 -224.8 -93.1C-210.9 -120.6 -185.3 -142.7 -160.5 -160.5C-135.7 -178.4 -111.6 -192 -85 -205.1C-58.3 -218.2 -29.2 -230.8 0 -243.4L0 0Z" fill="#326273"></path></g><g transform="translate(0, 0)"><path d="M243.4 0C240.5 32.7 237.7 65.4 224.8 93.1C212 120.9 189.1 143.7 166.2 166.2C143.3 188.6 120.3 210.8 92.6 223.6C64.9 236.4 32.5 239.9 0 243.4L0 0Z" fill="#326273"></path></g></svg>