<svg id="visual" viewBox="0 0 900 600" width="900" height="600" xmlns="http://www.w3.org/2000/svg" xmlns:xlink="http://www.w3.org/1999/xlink" version="1.1"><rect x="0" y="0" width="900" height="600" fill="#eeeeee"></rect><defs><linearGradient id="grad1_0" x1="33.3%" y1="100%" x2="100%" y2="0%"><stop offset="20%" stop-color="#eeeeee" stop-opacity="1"></stop><stop offset="80%" stop-color="#eeeeee" stop-opacity="1"></stop></linearGradient></defs><defs><linearGradient id="grad2_0" x1="0%" y1="100%" x2="66.7%" y2="0%"><stop offset="20%" stop-color="#eeeeee" stop-opacity="1"></stop><stop offset="80%" stop-color="#eeeeee" stop-opacity="1"></stop></linearGradient></defs><g transform="translate(900, 600)"><path d="M-189.3 0C-184.8 -24 -180.3 -48 -171.8 -71.2C-163.4 -94.3 -151.1 -116.6 -133.8 -133.8C-116.6 -151.1 -94.3 -163.4 -71.2 -171.8C-48 -180.3 -24 -184.8 0 -189.3L0 0Z" fill="#326273"></path></g><g transform="translate(0, 0)"><path d="M189.3 0C187.6 25.7 185.8 51.5 174.9 72.4C163.9 93.4 143.8 109.6 125.2 125.2C106.5 140.7 89.5 155.7 68.9 166.3C48.3 176.9 24.1 183.1 0 189.3L0 0Z" fill="#326273"></path></g></svg>