<svg id="visual" viewBox="0 0 900 600" width="900" height="600" xmlns="http://www.w3.org/2000/svg" xmlns:xlink="http://www.w3.org/1999/xlink" version="1.1"><rect x="0" y="0" width="900" height="600" fill="#eeeeee"></rect><defs><linearGradient id="grad1_0" x1="33.3%" y1="100%" x2="100%" y2="0%"><stop offset="20%" stop-color="#eeeeee" stop-opacity="1"></stop><stop offset="80%" stop-color="#eeeeee" stop-opacity="1"></stop></linearGradient></defs><defs><linearGradient id="grad2_0" x1="0%" y1="100%" x2="66.7%" y2="0%"><stop offset="20%" stop-color="#eeeeee" stop-opacity="1"></stop><stop offset="80%" stop-color="#eeeeee" stop-opacity="1"></stop></linearGradient></defs><g transform="translate(900, 600)"><path d="M-459.7 0C-455.4 -62.8 -451.2 -125.6 -424.7 -175.9C-398.3 -226.3 -349.7 -264.2 -306.2 -306.2C-262.7 -348.1 -224.3 -394.1 -174.1 -420.4C-123.9 -446.6 -62 -453.2 0 -459.7L0 0Z" fill="#326273"></path></g><g transform="translate(0, 0)"><path d="M459.7 0C456.4 62.9 453.1 125.9 424.7 175.9C396.4 226 343 263.1 295.6 295.6C248.2 328.1 206.7 355.9 158.4 382.5C110.2 409.1 55.1 434.4 0 459.7L0 0Z" fill="#326273"></path></g></svg>