<svg id="visual" viewBox="0 0 900 600" width="900" height="600" xmlns="http://www.w3.org/2000/svg" xmlns:xlink="http://www.w3.org/1999/xlink" version="1.1"><rect x="0" y="0" width="900" height="600" fill="#EEEEEE"></rect><defs><linearGradient id="grad1_0" x1="33.3%" y1="100%" x2="100%" y2="0%"><stop offset="20%" stop-color="#326273" stop-opacity="1"></stop><stop offset="80%" stop-color="#326273" stop-opacity="1"></stop></linearGradient></defs><defs><linearGradient id="grad1_1" x1="33.3%" y1="100%" x2="100%" y2="0%"><stop offset="20%" stop-color="#326273" stop-opacity="1"></stop><stop offset="80%" stop-color="#628390" stop-opacity="1"></stop></linearGradient></defs><defs><linearGradient id="grad1_2" x1="33.3%" y1="100%" x2="100%" y2="0%"><stop offset="20%" stop-color="#90a5af" stop-opacity="1"></stop><stop offset="80%" stop-color="#628390" stop-opacity="1"></stop></linearGradient></defs><defs><linearGradient id="grad1_3" x1="33.3%" y1="100%" x2="100%" y2="0%"><stop offset="20%" stop-color="#90a5af" stop-opacity="1"></stop><stop offset="80%" stop-color="#bec9ce" stop-opacity="1"></stop></linearGradient></defs><defs><linearGradient id="grad1_4" x1="33.3%" y1="100%" x2="100%" y2="0%"><stop offset="20%" stop-color="#eeeeee" stop-opacity="1"></stop><stop offset="80%" stop-color="#bec9ce" stop-opacity="1"></stop></linearGradient></defs><defs><linearGradient id="grad2_0" x1="0%" y1="100%" x2="66.7%" y2="0%"><stop offset="20%" stop-color="#326273" stop-opacity="1"></stop><stop offset="80%" stop-color="#326273" stop-opacity="1"></stop></linearGradient></defs><defs><linearGradient id="grad2_1" x1="0%" y1="100%" x2="66.7%" y2="0%"><stop offset="20%" stop-color="#628390" stop-opacity="1"></stop><stop offset="80%" stop-color="#326273" stop-opacity="1"></stop></linearGradient></defs><defs><linearGradient id="grad2_2" x1="0%" y1="100%" x2="66.7%" y2="0%"><stop offset="20%" stop-color="#628390" stop-opacity="1"></stop><stop offset="80%" stop-color="#90a5af" stop-opacity="1"></stop></linearGradient></defs><defs><linearGradient id="grad2_3" x1="0%" y1="100%" x2="66.7%" y2="0%"><stop offset="20%" stop-color="#bec9ce" stop-opacity="1"></stop><stop offset="80%" stop-color="#90a5af" stop-opacity="1"></stop></linearGradient></defs><defs><linearGradient id="grad2_4" x1="0%" y1="100%" x2="66.7%" y2="0%"><stop offset="20%" stop-color="#bec9ce" stop-opacity="1"></stop><stop offset="80%" stop-color="#eeeeee" stop-opacity="1"></stop></linearGradient></defs><g transform="translate(900, 600)"><path d="M-189.3 0C-178.2 -21.6 -167.1 -43.2 -158.9 -65.8C-150.7 -88.5 -145.3 -112.1 -131.5 -131.5C-117.8 -150.9 -95.7 -166 -72.4 -174.9C-49.1 -183.8 -24.6 -186.5 0 -189.3L0 0Z" fill="#d6dbde"></path><path d="M-151.4 0C-142.6 -17.3 -133.7 -34.5 -127.1 -52.7C-120.5 -70.8 -116.2 -89.7 -105.2 -105.2C-94.2 -120.7 -76.6 -132.8 -58 -139.9C-39.3 -147 -19.7 -149.2 0 -151.4L0 0Z" fill="#a7b7be"></path><path d="M-113.6 0C-106.9 -13 -100.3 -25.9 -95.3 -39.5C-90.4 -53.1 -87.2 -67.3 -78.9 -78.9C-70.7 -90.5 -57.4 -99.6 -43.5 -104.9C-29.5 -110.3 -14.7 -111.9 0 -113.6L0 0Z" fill="#79949f"></path><path d="M-75.7 0C-71.3 -8.6 -66.9 -17.3 -63.6 -26.3C-60.3 -35.4 -58.1 -44.9 -52.6 -52.6C-47.1 -60.4 -38.3 -66.4 -29 -70C-19.7 -73.5 -9.8 -74.6 0 -75.7L0 0Z" fill="#4b7281"></path><path d="M-37.9 0C-35.6 -4.3 -33.4 -8.6 -31.8 -13.2C-30.1 -17.7 -29.1 -22.4 -26.3 -26.3C-23.6 -30.2 -19.1 -33.2 -14.5 -35C-9.8 -36.8 -4.9 -37.3 0 -37.9L0 0Z" fill="#326273"></path></g><g transform="translate(0, 0)"><path d="M189.3 0C178.3 21.3 167.4 42.6 159.8 66.2C152.3 89.8 148.2 115.6 133.8 133.8C119.5 152.1 94.8 162.9 70.8 170.9C46.8 178.9 23.4 184.1 0 189.3L0 0Z" fill="#d6dbde"></path><path d="M151.4 0C142.7 17.1 133.9 34.1 127.9 53C121.8 71.8 118.6 92.4 107.1 107.1C95.6 121.7 75.9 130.3 56.6 136.7C37.4 143.1 18.7 147.3 0 151.4L0 0Z" fill="#a7b7be"></path><path d="M113.6 0C107 12.8 100.4 25.6 95.9 39.7C91.4 53.9 88.9 69.3 80.3 80.3C71.7 91.3 56.9 97.8 42.5 102.6C28.1 107.3 14 110.5 0 113.6L0 0Z" fill="#79949f"></path><path d="M75.7 0C71.3 8.5 66.9 17.1 63.9 26.5C60.9 35.9 59.3 46.2 53.5 53.5C47.8 60.9 37.9 65.2 28.3 68.4C18.7 71.6 9.4 73.6 0 75.7L0 0Z" fill="#4b7281"></path><path d="M37.9 0C35.7 4.3 33.5 8.5 32 13.2C30.5 18 29.6 23.1 26.8 26.8C23.9 30.4 19 32.6 14.2 34.2C9.4 35.8 4.7 36.8 0 37.9L0 0Z" fill="#326273"></path></g></svg>